<svg xmlns="http://www.w3.org/2000/svg" viewBox="0 0 1600 900"><defs><radialGradient id="g"><stop stop-color="#294b68"/><stop offset="1" stop-color="#081422"/></radialGradient></defs><path fill="url(#g)" d="M0 0h1600v900H0z"/><g stroke-width="8"><path d="M0 780h1600" stroke="#a2d7ee"/><g fill="#32617d" stroke="#bcd9ea"><circle cx="950" cy="240" r="72"/><path d="M870 300l150 20 65 190-100 75-100-90-60-70zM920 515l-100 200-140 80 30 30 180-65 115-160M1045 535l85 130 170 85-20 50-205-92-110-130M1045 380l175 100 170 160-25 25-195-140-165-65z"/><path d="M1310 610l120 180h110" fill="none" stroke-width="20"/></g></g></svg>